<svg xmlns="http://www.w3.org/2000/svg"
 xmlns:xlink="http://www.w3.org/1999/xlink"
 width="73px" height="86px"  viewBox="0 0 73 86">
<path fill-rule="evenodd"  fill="#ffffff"
 d="M36.075348,84.011475 C16.707275,84.011475 1.0056763,68.311646 1.0056763,48.94165 C1.0056763,32.932495 11.74469,19.455322 26.405151,15.254028 C26.405151,15.254028 26.405151,26.468018 26.405151,26.468018 C17.703064,30.216675 11.608093,38.863647 11.608093,48.94165 C11.608093,62.45337 22.562012,73.408936 36.075348,73.408936 C49.586792,73.408936 60.54251,62.45337 60.54251,48.94165 C60.54251,38.95642 54.553284,30.384033 45.978912,26.581055 C45.978912,26.581055 45.978912,15.314087 45.978912,15.314087 C60.520447,19.590332 71.14514,33.016357 71.14514,48.94165 C71.14514,68.311646 55.44507,84.011475 36.075348,84.011475 ZM35.958984,55.583008 C33.12805,55.583008 30.83252,53.28943 30.83252,50.456543 C30.83252,50.456543 30.83252,7.114624 30.83252,7.114624 C30.83252,4.2838135 33.12805,1.9882812 35.958984,1.9882812 C38.791412,1.9882812 41.08542,4.2838135 41.08542,7.114624 C41.08542,7.114624 41.08542,50.456543 41.08542,50.456543 C41.08542,53.28943 38.791412,55.583008 35.958984,55.583008 Z"/>
</svg>