<svg xmlns="http://www.w3.org/2000/svg"
 xmlns:xlink="http://www.w3.org/1999/xlink"
 width="58px" height="76px"  viewBox="0 0 58 76">
<path fill-rule="evenodd"  fill="#ffffff"
 d="M54.399963,73.03369 C53.092896,74.34082 51.52063,74.99304 49.669556,74.99304 C49.669556,74.99304 7.7022095,74.99304 7.7022095,74.99304 C5.851074,74.99304 4.2714233,74.34082 2.9643555,73.03369 C1.6572876,71.726685 1.0111084,70.15442 1.0111084,68.30347 C1.0111084,68.30347 1.0111084,37.13501 1.0111084,37.13501 C1.0111084,35.284058 1.6572876,33.71167 2.9643555,32.40454 C4.2714233,31.097412 5.851074,30.44397 7.7022095,30.44397 C7.7022095,30.44397 7.989868,30.44397 7.989868,30.44397 C7.989868,30.44397 7.989868,23.465332 7.989868,23.465332 C7.989868,20.53247 8.5112915,17.746582 9.560791,15.101318 C10.611389,12.456055 12.082764,10.14563 13.965027,8.169922 C15.839783,6.1932373 18.04187,4.6295166 20.555237,3.4855957 C23.075989,2.3342285 25.768555,1.7591553 28.639282,1.7591553 C31.564575,1.7591553 34.295776,2.3342285 36.80786,3.4855957 C39.328613,4.6295166 41.53076,6.1932373 43.40558,8.169922 C45.28766,10.14563 46.751648,12.456055 47.802307,15.101318 C48.860413,17.746582 49.38086,20.53247 49.38086,23.465332 C49.38086,23.465332 49.38086,30.44397 49.38086,30.44397 C49.38086,30.44397 49.669556,30.44397 49.669556,30.44397 C51.52063,30.44397 53.092896,31.097412 54.399963,32.40454 C55.707153,33.71167 56.359375,35.284058 56.359375,37.13501 C56.359375,37.13501 56.359375,68.30347 56.359375,68.30347 C56.359375,70.15442 55.707153,71.726685 54.399963,73.03369 ZM41.545776,23.465332 C41.545776,21.488525 41.195923,19.637451 40.48761,17.918335 C39.788025,16.19812 38.846924,14.712891 37.671753,13.475464 C36.489197,12.230591 35.119873,11.258423 33.563843,10.557739 C32.000305,9.858154 30.358276,9.506836 28.639282,9.506836 C26.918884,9.506836 25.278198,9.858154 23.7146,10.557739 C22.149902,11.258423 20.79663,12.230591 19.65271,13.475464 C18.50122,14.712891 17.575012,16.19812 16.875488,17.918335 C16.174683,19.637451 15.824768,21.488525 15.824768,23.465332 C15.824768,23.465332 15.824768,30.44397 15.824768,30.44397 C15.824768,30.44397 41.64038,30.44397 41.64038,30.44397 C41.64038,30.44397 41.545776,23.465332 41.545776,23.465332 ZM35.32892,45.647217 C35.32892,43.91931 34.706543,42.441772 33.46173,41.19702 C32.225586,39.95215 30.70813,39.33716 28.926819,39.33716 C27.200195,39.33716 25.721252,39.95215 24.476501,41.19702 C23.231628,42.441772 22.6167,43.91931 22.6167,45.647217 C22.6167,47.684937 23.378479,49.31079 24.912048,50.51709 C24.912048,50.51709 22.997559,65.5249 22.997559,65.5249 C22.997559,65.5249 34.94806,65.5249 34.94806,65.5249 C34.94806,65.5249 33.034668,50.51709 33.034668,50.51709 C34.56714,49.31079 35.32892,47.684937 35.32892,45.647217 Z"/>
</svg>