<svg xmlns="http://www.w3.org/2000/svg"
 xmlns:xlink="http://www.w3.org/1999/xlink"
 width="85px" height="85px"  viewBox="0 0 85 85">
<path fill-rule="evenodd"  fill="#ffffff"
 d="M81.13783,78.84497 C81.13783,78.84497 78.768906,81.213745 78.768906,81.213745 C76.39014,83.59265 72.5334,83.59265 70.15463,81.213745 C70.15463,81.213745 55.251984,66.31128 55.251984,66.31128 C49.90294,69.66272 43.57901,71.602295 36.801132,71.602295 C17.580856,71.602295 1.9997253,56.02124 1.9997253,36.801025 C1.9997253,17.580688 17.580856,1.9995117 36.801132,1.9995117 C56.021408,1.9995117 71.60246,17.580688 71.60246,36.801025 C71.60246,43.61841 69.64041,49.97693 66.25273,55.34558 C66.25273,55.34558 81.13783,70.23059 81.13783,70.23059 C83.516525,72.609375 83.516525,76.466064 81.13783,78.84497 ZM36.801132,11.6311035 C22.900223,11.6311035 11.631302,22.900146 11.631302,36.801025 C11.631302,50.702026 22.900223,61.97058 36.801132,61.97058 C50.701965,61.97058 61.970886,50.702026 61.970886,36.801025 C61.970886,22.900146 50.701965,11.6311035 36.801132,11.6311035 Z"/>
</svg>