<svg xmlns="http://www.w3.org/2000/svg"
 xmlns:xlink="http://www.w3.org/1999/xlink"
 width="79px" height="82px"  viewBox="0 0 79 82">
<path fill-rule="evenodd"  fill="#ffffff"
 d="M59.614197,1.005127 C49.496155,1.9013672 41.960693,10.318359 43.706177,20.219849 C54.292786,19.23938 59.09662,12.3220215 59.614197,1.005127 ZM75.52246,26.945679 C66.79932,13.307129 52.685852,23.165283 45.57849,23.10254 C40.068848,23.05371 36.647827,18.939453 30.605713,19.259277 C1.3955688,20.804932 10.636383,76.321045 30.605713,79.7876 C35.845276,80.69592 40.00171,76.83276 46.513977,76.904785 C52.808167,76.9751 55.37268,80.93042 61.485107,79.7876 C70.082886,78.1792 72.034485,67.53955 77.39337,60.571533 C67.1156,55.041504 62.0058,34.38269 75.52246,26.945679 Z"/>
</svg>