<svg xmlns="http://www.w3.org/2000/svg"
 xmlns:xlink="http://www.w3.org/1999/xlink"
 width="81px" height="73px"  viewBox="0 0 81 73">
<path fill-rule="evenodd"  fill="#ffffff"
 d="M39.365906,1.0178223 C36.612793,1.0178223 34.355835,2.9290771 33.84546,5.5411377 C33.84546,5.5411377 33.701538,5.5411377 33.701538,5.5411377 C33.701538,5.5411377 15.580139,25.940552 15.580139,25.940552 C15.580139,25.940552 24.64087,25.940552 24.64087,25.940552 C24.64087,25.940552 37.175537,11.84729 37.175537,11.84729 C37.850403,12.133423 38.591614,12.346558 39.365906,12.346558 C40.153076,12.346558 40.88037,12.133423 41.569153,11.84729 C41.569153,11.84729 54.08966,25.940552 54.08966,25.940552 C54.08966,25.940552 63.16455,25.940552 63.16455,25.940552 C63.16455,25.940552 45.030273,5.5411377 45.030273,5.5411377 C45.030273,5.5411377 44.88501,5.5411377 44.88501,5.5411377 C44.389954,2.9290771 42.131897,1.0178223 39.365906,1.0178223 C39.365906,1.0178223 39.365906,1.0178223 39.365906,1.0178223 ZM6.520874,30.466675 C4.0078735,30.466675 1.9833984,32.49121 1.9833984,35.00415 C1.9833984,35.00415 1.9833984,37.269165 1.9833984,37.269165 C1.9833984,39.66028 3.8183594,41.541016 6.16687,41.73059 C6.16687,41.73059 13.312134,66.720825 13.312134,66.720825 C15.580139,71.25537 17.84961,71.25537 20.103455,71.25537 C20.103455,71.25537 60.89508,71.25537 60.89508,71.25537 C63.16455,71.25537 65.418396,71.25537 67.687744,66.720825 C67.687744,66.720825 74.84729,41.73059 74.84729,41.73059 C77.180176,41.541016 79.01648,39.66028 79.01648,37.269165 C79.01648,37.269165 79.01648,35.00415 79.01648,35.00415 C79.01648,32.49121 77.00311,30.466675 74.493286,30.466675 C74.493286,30.466675 6.520874,30.466675 6.520874,30.466675 C6.520874,30.466675 6.520874,30.466675 6.520874,30.466675 ZM19.265686,41.795288 C19.265686,41.795288 20.392578,41.795288 20.392578,41.795288 C22.905273,41.795288 25.383423,43.687256 25.913086,46.04358 C25.913086,46.04358 29.099243,60.13977 29.099243,60.13977 C29.631714,62.50708 28.005493,64.45276 25.492798,64.45276 C25.492798,64.45276 24.351746,64.45276 24.351746,64.45276 C21.843262,64.45276 19.365112,62.50708 18.832642,60.13977 C18.832642,60.13977 15.646423,46.04358 15.646423,46.04358 C15.116821,43.687256 16.752625,41.795288 19.265686,41.795288 C19.265686,41.795288 19.265686,41.795288 19.265686,41.795288 ZM40.50708,41.795288 C43.016907,41.795288 45.030273,43.82007 45.030273,46.33264 C45.030273,46.33264 45.030273,59.926514 45.030273,59.926514 C45.030273,62.439453 43.016907,64.45276 40.50708,64.45276 C37.99402,64.45276 35.969604,62.439453 35.969604,59.926514 C35.969604,59.926514 35.969604,46.33264 35.969604,46.33264 C35.969604,43.82007 37.99402,41.795288 40.50708,41.795288 C40.50708,41.795288 40.50708,41.795288 40.50708,41.795288 ZM60.6073,41.795288 C60.6073,41.795288 61.748413,41.795288 61.748413,41.795288 C64.2583,41.795288 65.88312,43.687256 65.353455,46.04358 C65.353455,46.04358 62.167297,60.13977 62.167297,60.13977 C61.634827,62.50708 59.159546,64.45276 56.64679,64.45276 C56.64679,64.45276 55.505737,64.45276 55.505737,64.45276 C52.997314,64.45276 51.37097,62.50708 51.900635,60.13977 C51.900635,60.13977 55.086792,46.04358 55.086792,46.04358 C55.619263,43.687256 58.094604,41.795288 60.6073,41.795288 C60.6073,41.795288 60.6073,41.795288 60.6073,41.795288 Z"/>
</svg>