<svg xmlns="http://www.w3.org/2000/svg"
 xmlns:xlink="http://www.w3.org/1999/xlink"
 width="30px" height="32px"  viewBox="0 0 30 32">
<path fill-rule="evenodd"  fill="#ffffff"
 d="M28.327698,4.2198486 C28.025269,4.8774414 27.659546,5.749054 27.230652,6.83374 C26.799011,7.91922 26.346313,9.085876 25.86554,10.33548 C25.387207,11.585236 24.913574,12.854797 24.44751,14.142426 C23.979126,15.430176 23.55603,16.592499 23.177856,17.62564 C22.798157,18.661865 22.369812,19.835907 21.889465,21.148651 C21.68628,21.60315 21.462158,22.012848 21.208374,22.378296 C20.955627,22.744843 20.576904,22.928589 20.070312,22.928589 C20.070312,22.928589 6.9697266,22.928589 6.9697266,22.928589 C6.4646606,22.928589 6.0664062,22.73935 5.7768555,22.360077 C5.484436,21.981293 5.2783813,21.578674 5.1520386,21.148651 C5.1520386,21.148651 2.085083,9.673401 2.085083,9.673401 C1.9562988,9.169464 2.001648,8.739136 2.217163,8.386597 C2.4308472,8.032288 2.9908447,7.856079 3.900879,7.856079 C3.900879,7.856079 23.214539,7.856079 23.214539,7.856079 C23.214539,7.856079 25.488708,2.934021 25.488708,2.934021 C25.714355,2.4539185 26.031982,2.1632385 26.435059,2.0609741 C26.8396,1.9609375 27.218262,1.9931641 27.568787,2.1574402 C27.923706,2.3215332 28.195068,2.586792 28.385437,2.951416 C28.573853,3.318451 28.555176,3.7408752 28.327698,4.2198486 ZM11.287842,28.26825 C11.287842,29.026306 11.019714,29.668274 10.48938,30.198486 C9.958923,30.728638 9.318909,30.995178 8.560486,30.995178 C7.7773438,30.995178 7.12146,30.728638 6.5910034,30.198486 C6.061157,29.668274 5.7963867,29.026306 5.7963867,28.26825 C5.7963867,27.511475 6.061157,26.861816 6.5910034,26.317139 C7.12146,25.77533 7.7773438,25.503357 8.560486,25.503357 C9.318909,25.503357 9.958923,25.77533 10.48938,26.317139 C11.019714,26.861816 11.287842,27.511475 11.287842,28.26825 ZM20.791992,28.26825 C20.791992,29.026306 20.527771,29.668274 19.997864,30.198486 C19.466919,30.728638 18.82306,30.995178 18.065613,30.995178 C17.28247,30.995178 16.624634,30.728638 16.096191,30.198486 C15.565796,29.668274 15.30011,29.026306 15.30011,28.26825 C15.30011,27.511475 15.565796,26.861816 16.096191,26.317139 C16.624634,25.77533 17.28247,25.503357 18.065613,25.503357 C18.82306,25.503357 19.466919,25.77533 19.997864,26.317139 C20.527771,26.861816 20.791992,27.511475 20.791992,28.26825 Z"/>
</svg>