<svg xmlns="http://www.w3.org/2000/svg"
 xmlns:xlink="http://www.w3.org/1999/xlink"
 width="224px" height="222px"  viewBox="0 0 224 222">
<path fill-rule="evenodd"  fill="#ffffff"
 d="M220.06262,218.79053 C218.7644,220.08813 216.97742,220.8186 215.15027,220.82202 C215.15027,220.82202 135.15723,220.82397 135.15723,220.82397 C133.27734,220.8269 131.52869,220.0647 130.25171,218.78857 C129.61792,218.15552 129.10364,217.40112 128.74158,216.54541 C127.66431,213.95093 128.26282,210.96777 130.25171,208.97632 C130.25171,208.97632 154.68091,190.70264 154.68091,190.70264 C154.68091,190.70264 118.62366,154.64453 118.62366,154.64453 C118.62366,154.64453 118.63306,154.63379 118.63306,154.63379 C118.55176,154.55249 118.46106,154.4856 118.38049,154.40063 C108.08374,144.10498 108.08374,127.408936 118.38049,117.11206 C128.6748,106.818115 145.37036,106.818115 155.66687,117.11206 C155.75049,117.19678 155.81726,117.284424 155.90015,117.36621 C155.90015,117.36621 155.90991,117.35547 155.90991,117.35547 C155.90991,117.35547 191.96948,153.41577 191.96948,153.41577 C191.96948,153.41577 210.24255,128.98657 210.24255,128.98657 C212.22205,127.00659 215.20996,126.404785 217.80444,127.483154 C220.40344,128.55835 222.0924,131.08936 222.08765,133.89575 C222.08765,133.89575 222.08765,213.88184 222.08765,213.88184 C222.0924,215.70361 221.3518,217.50366 220.06262,218.79053 ZM68.374146,104.82153 C68.28851,104.73682 68.22174,104.65039 68.14093,104.56763 C68.14093,104.56763 68.1311,104.578125 68.1311,104.578125 C68.1311,104.578125 32.071594,68.52075 32.071594,68.52075 C32.071594,68.52075 13.796448,92.948 13.796448,92.948 C11.81897,94.92822 8.831848,95.528564 6.2374268,94.45166 C3.6378174,93.376465 1.9489136,90.84546 1.9536743,88.04126 C1.9536743,88.04126 1.9536743,8.051514 1.9536743,8.051514 C1.9489136,6.2299805 2.6895142,4.4328613 3.9783936,3.1430664 C5.2768555,1.8457031 7.063965,1.1152344 8.890869,1.112793 C8.890869,1.112793 88.88397,1.1096191 88.88397,1.1096191 C90.76404,1.1096191 92.512695,1.869873 93.78937,3.1481934 C94.423096,3.7817383 94.93799,4.5358887 95.30029,5.3916016 C96.37671,7.986328 95.77905,10.967041 93.78937,12.958496 C93.78937,12.958496 69.358154,31.232178 69.358154,31.232178 C69.358154,31.232178 105.41821,67.28906 105.41821,67.28906 C105.41821,67.28906 105.408325,67.30005 105.408325,67.30005 C105.489624,67.382324 105.57764,67.451416 105.66077,67.53296 C115.957275,77.829834 115.957275,94.52588 105.66077,104.82495 C95.36633,115.1189 78.67102,115.1189 68.374146,104.82153 Z"/>
</svg>